<?xml version="1.0" standalone="no"?>
<!DOCTYPE svg PUBLIC "-//W3C//DTD SVG 20010904//EN"
 "http://www.w3.org/TR/2001/REC-SVG-20010904/DTD/svg10.dtd">
<svg version="1.0" xmlns="http://www.w3.org/2000/svg"
 width="350.000000pt" height="350.000000pt" viewBox="0 0 350.000000 350.000000"
 preserveAspectRatio="xMidYMid meet">
<metadata>
Created by potrace 1.14, written by Peter Selinger 2001-2017
</metadata>
<g transform="translate(0.000000,350.000000) scale(0.100000,-0.100000)"
fill="#000000" stroke="none">
<path d="M976 1957 c-423 -848 -816 -1635 -872 -1749 l-104 -208 323 0 322 1
-67 28 c-75 32 -88 42 -114 91 -18 35 -24 158 -11 220 41 198 124 376 262 559
75 99 200 231 264 279 20 15 38 30 41 33 17 20 203 122 278 152 431 173 893
119 1141 -131 l56 -56 -70 -13 c-39 -7 -82 -15 -97 -18 -15 -3 -40 -10 -55
-16 -15 -6 -29 -10 -31 -9 -7 2 -219 -68 -292 -97 -241 -97 -515 -255 -720
-414 -114 -88 -319 -290 -421 -414 -111 -135 -112 -138 -9 -35 53 52 120 115
149 140 30 25 59 50 65 55 6 6 45 38 86 70 41 33 77 63 80 66 13 17 172 114
235 143 72 34 183 72 239 81 17 3 42 8 56 10 39 8 180 8 230 1 326 -49 564
-304 473 -506 -44 -97 -138 -162 -295 -204 -47 -13 24 -15 660 -15 391 -1 712
1 712 3 0 5 -1737 3486 -1742 3491 -2 2 -349 -691 -772 -1538z m864 -146 c49
-99 94 -183 101 -186 6 -4 39 -9 73 -11 397 -24 759 -260 836 -544 21 -79 28
-151 15 -156 -16 -7 -141 34 -153 49 -5 7 -17 39 -27 72 -63 223 -279 391
-610 476 -80 20 -113 23 -295 22 -113 0 -219 -3 -237 -6 -27 -4 -31 -2 -25 11
14 32 227 452 229 452 2 0 43 -81 93 -179z"/>
</g>
</svg>
