<svg width="144" height="149" viewBox="0 0 144 149" fill="none" xmlns="http://www.w3.org/2000/svg">
<path d="M5.4903 61.4635C3.53903 63.4148 2.04508 65.8234 1.14567 68.4149C0.886514 69.1619 0.673093 69.9394 0.505406 70.717C-0.226321 74.1469 0.109054 77.8208 1.38958 81.0831C2.30424 83.4155 3.70671 85.5497 5.4903 87.3333L61.5894 143.432C68.7388 150.582 80.3094 150.582 87.4588 143.432C94.6084 136.283 94.6084 124.712 87.4588 117.563L62.5954 92.6993H125.707C135.814 92.6993 144 84.5131 144 74.4061C144 64.299 135.814 56.1129 125.707 56.1129L62.5954 56.1129L87.4588 31.2493C91.026 27.6823 92.8097 23.0021 92.8097 18.307C92.8097 13.6116 91.0262 8.94699 87.4588 5.36458C80.3094 -1.78501 68.7388 -1.78501 61.5894 5.36458L5.4903 61.4635Z" fill="#9B9B9B"/>
</svg>
