<svg width="76" height="76" viewBox="0 0 76 76" fill="none" xmlns="http://www.w3.org/2000/svg">
<path d="M75.9999 34.3666V58.1254C75.9999 62.8592 74.1194 67.3991 70.7721 70.7464C67.4248 74.0937 62.8849 75.9742 58.1511 75.9742H48.2351V58.1254C48.2351 55.4955 47.1904 52.9733 45.3308 51.1137C43.4711 49.2541 40.949 48.2094 38.3191 48.2094C35.6892 48.2094 33.167 49.2541 31.3074 51.1137C29.4478 52.9733 28.403 55.4955 28.403 58.1254V75.9742H18.487C13.7532 75.9742 9.21331 74.0937 5.866 70.7464C2.5187 67.3991 0.638199 62.8592 0.638199 58.1254V34.3666C0.634722 31.7015 1.23117 29.0698 2.38333 26.6666C3.53549 24.2634 5.2138 22.1504 7.29383 20.4842L27.1259 4.54718C30.3061 2.01437 34.2515 0.635254 38.3171 0.635254C42.3827 0.635254 46.3281 2.01437 49.5083 4.54718L69.3403 20.4842C71.4215 22.1496 73.1009 24.2624 74.2538 26.6657C75.4067 29.069 76.0035 31.7011 75.9999 34.3666V34.3666Z" fill="#9B9B9B"/>
</svg>
