<svg width="19" height="19" viewBox="0 0 19 19" fill="none" xmlns="http://www.w3.org/2000/svg">
<path d="M9.49749 4.61823C6.80495 4.61823 4.62512 6.80042 4.62512 9.49059C4.62512 12.1831 6.80732 14.363 9.49749 14.363C12.19 14.363 14.3699 12.1808 14.3699 9.49059C14.3699 6.79805 12.1877 4.61823 9.49749 4.61823ZM9.49749 12.6531C7.74967 12.6531 6.33496 11.2376 6.33496 9.49059C6.33496 7.74357 7.75046 6.32807 9.49749 6.32807C11.2445 6.32807 12.66 7.74357 12.66 9.49059C12.6608 11.2376 11.2453 12.6531 9.49749 12.6531Z" fill="#171717"/>
<path d="M13.4099 0.0596479C11.6628 -0.0218484 7.33563 -0.0178923 5.58703 0.0596479C4.05046 0.131649 2.69509 0.502734 1.60241 1.59542C-0.223737 3.42157 0.00967454 5.88228 0.00967454 9.49106C0.00967454 13.1845 -0.196044 15.5882 1.60241 17.3867C3.43568 19.2192 5.932 18.9794 9.49805 18.9794C13.1567 18.9794 14.4195 18.9818 15.7131 18.481C17.472 17.7981 18.7997 16.226 18.9295 13.4021C19.0118 11.6543 19.007 7.32785 18.9295 5.57924C18.7728 2.24581 16.9838 0.224223 13.4099 0.0596479ZM16.1752 16.1785C14.9781 17.3756 13.3173 17.2688 9.47511 17.2688C5.51898 17.2688 3.93257 17.3274 2.77501 16.1666C1.44179 14.8397 1.68312 12.709 1.68312 9.4784C1.68312 5.10688 1.23449 1.95859 5.62184 1.73388C6.62986 1.69828 6.92657 1.68641 9.46403 1.68641L9.49964 1.71014C13.7161 1.71014 17.0242 1.26864 17.2228 5.6552C17.2679 6.6561 17.2782 6.95676 17.2782 9.49027C17.2774 13.4005 17.3518 14.9964 16.1752 16.1785Z" fill="#171717"/>
<path d="M14.5629 5.56453C15.1917 5.56453 15.7015 5.05477 15.7015 4.42596C15.7015 3.79714 15.1917 3.28738 14.5629 3.28738C13.9341 3.28738 13.4243 3.79714 13.4243 4.42596C13.4243 5.05477 13.9341 5.56453 14.5629 5.56453Z" fill="#171717"/>
</svg>
