<svg width="194" height="103" viewBox="0 0 194 103" fill="none" xmlns="http://www.w3.org/2000/svg">
<path d="M0 31.5424L19.6619 0.704857H29.8896L37.2076 31.5424H26.8477L21.8661 5.5067H25.9219L10.9771 31.5424H0ZM9.08149 26.1678L13.2255 18.6787H27.4208L28.567 26.1678H9.08149Z" fill="white"/>
<path d="M57.3059 32.2472C54.1318 32.2472 51.3544 31.6745 48.9738 30.5292C46.5932 29.3544 44.7417 27.7391 43.4191 25.6833C42.126 23.598 41.4794 21.1898 41.4794 18.4585C41.4794 15.7565 41.9496 13.2748 42.8901 11.0134C43.86 8.75198 45.2119 6.79894 46.9459 5.15427C48.6799 3.5096 50.7372 2.24673 53.1178 1.36566C55.4984 0.45522 58.1141 0 60.9649 0C63.9333 0 66.5637 0.528643 68.8561 1.58593C71.1485 2.64322 72.8531 4.17041 73.97 6.1675L66.4755 12.0266C65.829 10.8812 64.9913 10.0002 63.9627 9.38342C62.934 8.7373 61.7144 8.41424 60.3036 8.41424C59.0693 8.41424 57.9378 8.64919 56.9091 9.1191C55.9099 9.55963 55.0428 10.2058 54.3081 11.0575C53.5734 11.8798 53.0002 12.8637 52.5888 14.009C52.1773 15.1544 51.9716 16.4173 51.9716 17.7977C51.9716 19.0018 52.2361 20.0591 52.7651 20.9695C53.2941 21.88 54.0289 22.5848 54.9694 23.0841C55.9392 23.5834 57.0561 23.833 58.3198 23.833C59.5248 23.833 60.7004 23.554 61.8466 22.996C63.0222 22.438 64.139 21.5275 65.1971 20.2647L71.3249 26.1238C69.4439 28.4146 67.3425 30.0152 65.0207 30.9256C62.7283 31.8067 60.1567 32.2472 57.3059 32.2472Z" fill="white"/>
<path d="M73.888 31.5424L80.0599 0.704857H93.9025C97.9877 0.704857 101.147 1.60061 103.381 3.39213C105.614 5.15427 106.731 7.63596 106.731 10.8372C106.731 13.4217 106.085 15.6831 104.791 17.6214C103.528 19.5598 101.72 21.0723 99.3691 22.159C97.0473 23.2456 94.2993 23.7889 91.1252 23.7889H81.162L86.7167 19.4276L84.292 31.5424H73.888ZM92.7563 31.5424L86.4081 20.3087H97.1207L103.557 31.5424H92.7563ZM86.4522 20.6611L82.7931 15.9474H91.6542C93.0943 15.9474 94.2111 15.595 95.0047 14.8901C95.7982 14.1559 96.1949 13.1427 96.1949 11.8504C96.1949 10.7344 95.8423 9.94143 95.1369 9.47152C94.4609 8.97225 93.5205 8.72262 92.3155 8.72262H84.2479L89.8026 3.87672L86.4522 20.6611Z" fill="white"/>
<path d="M125.428 32.2472C122.225 32.2472 119.448 31.6599 117.096 30.4851C114.775 29.3103 112.967 27.695 111.674 25.6392C110.41 23.554 109.778 21.1604 109.778 18.4585C109.778 15.7271 110.248 13.2455 111.189 11.0134C112.159 8.75198 113.511 6.79894 115.245 5.15427C116.979 3.5096 119.036 2.24673 121.417 1.36566C123.797 0.45522 126.398 0 129.22 0C132.423 0 135.186 0.587381 137.508 1.76214C139.859 2.93691 141.666 4.56689 142.93 6.6521C144.223 8.70793 144.87 11.0868 144.87 13.7888C144.87 16.5201 144.385 19.0165 143.415 21.2779C142.475 23.5099 141.137 25.4483 139.403 27.093C137.669 28.7376 135.612 30.0152 133.231 30.9256C130.851 31.8067 128.25 32.2472 125.428 32.2472ZM126.31 23.833C127.603 23.833 128.735 23.5834 129.705 23.0841C130.704 22.5848 131.556 21.8946 132.262 21.0136C132.967 20.1325 133.496 19.1339 133.849 18.0179C134.201 16.8725 134.378 15.6684 134.378 14.4055C134.378 13.2014 134.128 12.1588 133.628 11.2777C133.158 10.3673 132.467 9.66242 131.556 9.16315C130.674 8.66388 129.602 8.41424 128.338 8.41424C127.074 8.41424 125.943 8.66388 124.943 9.16315C123.944 9.66242 123.092 10.3526 122.387 11.2337C121.681 12.1147 121.152 13.128 120.799 14.2734C120.447 15.3894 120.27 16.5788 120.27 17.8417C120.27 19.0165 120.506 20.0591 120.976 20.9695C121.475 21.88 122.166 22.5848 123.048 23.0841C123.959 23.5834 125.046 23.833 126.31 23.833Z" fill="white"/>
<path d="M11.1535 66.9188L7.45035 36.0812H17.7221L20.6758 62.1169H15.2975L28.8756 36.0812H38.442L41.043 62.1169H35.9733L49.5073 36.0812H59.735L43.6881 66.9188H32.5346L30.1981 45.5968H33.3723L22.307 66.9188H11.1535Z" fill="white"/>
<path d="M74.1349 67.6236C70.9314 67.6236 68.1541 67.0362 65.8029 65.8615C63.4811 64.6867 61.6736 63.0714 60.3805 61.0156C59.1167 58.9304 58.4848 56.5368 58.4848 53.8348C58.4848 51.1035 58.955 48.6218 59.8955 46.3898C60.8654 44.1284 62.2173 42.1753 63.9513 40.5307C65.6853 38.886 67.7426 37.6231 70.1232 36.742C72.5038 35.8316 75.1048 35.3764 77.9262 35.3764C81.1297 35.3764 83.8924 35.9638 86.2142 37.1385C88.5654 38.3133 90.3729 39.9433 91.6366 42.0285C92.9298 44.0843 93.5764 46.4632 93.5764 49.1652C93.5764 51.8965 93.0914 54.3929 92.1216 56.6543C91.1811 58.8863 89.8439 60.8247 88.1098 62.4694C86.3758 64.114 84.3185 65.3916 81.938 66.302C79.5574 67.1831 76.9564 67.6236 74.1349 67.6236ZM75.0166 59.2094C76.3098 59.2094 77.4413 58.9598 78.4112 58.4605C79.4104 57.9612 80.2627 57.271 80.9681 56.39C81.6734 55.5089 82.2025 54.5103 82.5552 53.3943C82.9078 52.2489 83.0842 51.0448 83.0842 49.7819C83.0842 48.5778 82.8344 47.5352 82.3347 46.6541C81.8645 45.7437 81.1738 45.0388 80.2627 44.5395C79.381 44.0403 78.3083 43.7906 77.0445 43.7906C75.7808 43.7906 74.6493 44.0403 73.65 44.5395C72.6507 45.0388 71.7984 45.729 71.0931 46.6101C70.3877 47.4911 69.8587 48.5044 69.506 49.6498C69.1533 50.7658 68.977 51.9552 68.977 53.2181C68.977 54.3929 69.2121 55.4355 69.6824 56.3459C70.182 57.2563 70.8727 57.9612 71.7543 58.4605C72.6654 58.9598 73.7529 59.2094 75.0166 59.2094Z" fill="white"/>
<path d="M95.4569 66.9188L101.629 36.0812H115.471C119.557 36.0812 122.716 36.977 124.95 38.7685C127.183 40.5307 128.3 43.0123 128.3 46.2136C128.3 48.798 127.654 51.0595 126.36 52.9978C125.097 54.9362 123.289 56.4487 120.938 57.5354C118.616 58.622 115.868 59.1653 112.694 59.1653H102.731L108.286 54.804L105.861 66.9188H95.4569ZM114.325 66.9188L107.977 55.6851H118.69L125.126 66.9188H114.325ZM108.021 56.0375L104.362 51.3238H113.223C114.663 51.3238 115.78 50.9714 116.574 50.2665C117.367 49.5323 117.764 48.519 117.764 47.2268C117.764 46.1108 117.411 45.3178 116.706 44.8479C116.03 44.3486 115.089 44.099 113.884 44.099H105.817L111.372 39.2531L108.021 56.0375Z" fill="white"/>
<path d="M129.628 66.9188L135.8 36.0812H146.204L141.663 58.857H155.594L153.963 66.9188H129.628Z" fill="white"/>
<path d="M158.159 66.9188L164.331 36.0812H178.262C181.524 36.0812 184.331 36.6099 186.682 37.6672C189.033 38.7245 190.841 40.237 192.104 42.2047C193.368 44.1431 194 46.4632 194 49.1652C194 51.8965 193.515 54.3488 192.545 56.5221C191.605 58.6954 190.267 60.5604 188.533 62.1169C186.829 63.6735 184.801 64.8629 182.45 65.6853C180.099 66.5076 177.512 66.9188 174.691 66.9188H158.159ZM170.194 58.8129H175.043C176.895 58.8129 178.438 58.4164 179.672 57.6235C180.936 56.8011 181.891 55.7145 182.538 54.3635C183.185 52.9831 183.508 51.456 183.508 49.7819C183.508 48.5778 183.258 47.5645 182.758 46.7422C182.288 45.9199 181.568 45.2884 180.598 44.8479C179.658 44.4074 178.482 44.1871 177.071 44.1871H173.104L170.194 58.8129Z" fill="white"/>
<path d="M10.0514 102.295L14.5921 79.5194H5.5547L7.18584 71.4576H35.6647L34.0335 79.5194H24.9961L20.4554 102.295H10.0514Z" fill="white"/>
<path d="M50.4565 103C47.253 103 44.4757 102.413 42.1245 101.238C39.8027 100.063 37.9952 98.4478 36.702 96.392C35.4383 94.3068 34.8064 91.9132 34.8064 89.2112C34.8064 86.4799 35.2766 83.9982 36.2171 81.7662C37.187 79.5047 38.5389 77.5517 40.2729 75.907C42.0069 74.2624 44.0642 72.9995 46.4448 72.1184C48.8254 71.208 51.4264 70.7528 54.2478 70.7528C57.4513 70.7528 60.214 71.3401 62.5358 72.5149C64.887 73.6897 66.6945 75.3197 67.9582 77.4049C69.2514 79.4607 69.898 81.8396 69.898 84.5415C69.898 87.2729 69.413 89.7692 68.4432 92.0307C67.5027 94.2627 66.1654 96.2011 64.4314 97.8457C62.6974 99.4904 60.6401 100.768 58.2596 101.678C55.879 102.559 53.278 103 50.4565 103ZM51.3382 94.5858C52.6314 94.5858 53.7629 94.3361 54.7328 93.8369C55.732 93.3376 56.5843 92.6474 57.2897 91.7663C57.995 90.8853 58.5241 89.8867 58.8767 88.7707C59.2294 87.6253 59.4058 86.4212 59.4058 85.1583C59.4058 83.9542 59.1559 82.9116 58.6563 82.0305C58.1861 81.12 57.4954 80.4152 56.5843 79.9159C55.7026 79.4166 54.6299 79.167 53.3661 79.167C52.1024 79.167 50.9709 79.4166 49.9716 79.9159C48.9723 80.4152 48.12 81.1054 47.4147 81.9864C46.7093 82.8675 46.1803 83.8807 45.8276 85.0261C45.4749 86.1422 45.2986 87.3316 45.2986 88.5945C45.2986 89.7692 45.5337 90.8118 46.004 91.7223C46.5036 92.6327 47.1942 93.3376 48.0759 93.8369C48.987 94.3361 50.0745 94.5858 51.3382 94.5858Z" fill="white"/>
<path d="M87.3404 103C84.1369 103 81.4624 102.398 79.317 101.194C77.1715 99.9603 75.6432 98.2569 74.7321 96.0836C73.8504 93.8809 73.7035 91.3258 74.2913 88.4183L77.6858 71.4576H88.0899L84.7394 88.242C84.5337 89.3287 84.4602 90.2685 84.519 91.0615C84.5778 91.8544 84.7688 92.5152 85.0921 93.0439C85.4448 93.5725 85.915 93.969 86.5028 94.2333C87.0906 94.4683 87.796 94.5858 88.6189 94.5858C89.6181 94.5858 90.4705 94.3802 91.1758 93.969C91.9106 93.5578 92.513 92.8824 92.9833 91.9426C93.4829 91.0027 93.8797 89.7692 94.1736 88.242L97.524 71.4576H107.752L104.269 88.8588C103.358 93.4697 101.492 96.9793 98.6702 99.3876C95.8488 101.796 92.0722 103 87.3404 103Z" fill="white"/>
<path d="M107.671 102.295L113.843 71.4576H127.686C131.771 71.4576 134.931 72.3534 137.164 74.1449C139.398 75.907 140.515 78.3887 140.515 81.59C140.515 84.1744 139.868 86.4358 138.575 88.3742C137.311 90.3126 135.504 91.8251 133.153 92.9117C130.831 93.9984 128.083 94.5417 124.909 94.5417H114.945L120.5 90.1804L118.076 102.295H107.671ZM126.54 102.295L120.192 91.0615H130.904L137.341 102.295H126.54ZM120.236 91.4139L116.577 86.7002H125.438C126.878 86.7002 127.995 86.3477 128.788 85.6429C129.582 84.9087 129.978 83.8954 129.978 82.6032C129.978 81.4872 129.626 80.6942 128.92 80.2243C128.244 79.725 127.304 79.4754 126.099 79.4754H118.031L123.586 74.6295L120.236 91.4139Z" fill="white"/>
</svg>
