<svg width="2493" height="1100" viewBox="0 0 2493 1100" fill="none" xmlns="http://www.w3.org/2000/svg">
<path d="M898 348.273L1057.08 97.7268H1139.83L1199.04 348.273H1115.22L1074.91 136.74H1107.73L986.813 348.273H898ZM971.476 304.607L1005 243.76H1119.85L1129.13 304.607H971.476Z" fill="white"/>
<path d="M1350.95 354C1325.26 354 1302.79 349.347 1283.53 340.041C1264.27 330.496 1249.29 317.372 1238.59 300.669C1228.13 283.728 1222.9 264.161 1222.9 241.97C1222.9 220.017 1226.7 199.854 1234.31 181.481C1242.16 163.107 1253.1 147.24 1267.13 133.877C1281.16 120.515 1297.8 110.254 1317.06 103.096C1336.32 95.6985 1357.48 92 1380.55 92C1404.57 92 1425.85 96.2951 1444.4 104.885C1462.94 113.475 1476.73 125.883 1485.77 142.109L1425.13 189.713C1419.9 180.407 1413.13 173.249 1404.8 168.238C1396.48 162.988 1386.61 160.363 1375.2 160.363C1365.21 160.363 1356.06 162.272 1347.74 166.09C1339.65 169.669 1332.64 174.919 1326.69 181.839C1320.75 188.52 1316.11 196.514 1312.78 205.82C1309.45 215.126 1307.79 225.386 1307.79 236.601C1307.79 246.384 1309.93 254.975 1314.21 262.372C1318.49 269.769 1324.43 275.495 1332.04 279.552C1339.89 283.608 1348.92 285.637 1359.15 285.637C1368.9 285.637 1378.41 283.37 1387.68 278.836C1397.19 274.302 1406.23 266.905 1414.79 256.645L1464.37 304.249C1449.15 322.861 1432.15 335.865 1413.36 343.262C1394.82 350.421 1374.01 354 1350.95 354Z" fill="white"/>
<path d="M1474.41 348.273L1524.34 97.7268H1636.34C1669.39 97.7268 1694.95 105.005 1713.02 119.56C1731.1 133.877 1740.13 154.04 1740.13 180.049C1740.13 201.047 1734.9 219.421 1724.44 235.169C1714.21 250.918 1699.59 263.207 1680.57 272.036C1661.78 280.864 1639.55 285.279 1613.87 285.279H1533.26L1578.2 249.844L1558.58 348.273H1474.41ZM1627.06 348.273L1575.7 257.003H1662.38L1714.45 348.273H1627.06ZM1576.06 259.866L1546.46 221.568H1618.15C1629.8 221.568 1638.83 218.705 1645.26 212.978C1651.68 207.013 1654.89 198.781 1654.89 188.281C1654.89 179.214 1652.03 172.771 1646.33 168.954C1640.86 164.897 1633.25 162.869 1623.5 162.869H1558.23L1603.17 123.497L1576.06 259.866Z" fill="white"/>
<path d="M1880.7 354C1854.79 354 1832.32 349.228 1813.29 339.683C1794.51 330.138 1779.88 317.015 1769.42 300.311C1759.2 283.37 1754.08 263.923 1754.08 241.97C1754.08 219.779 1757.89 199.616 1765.5 181.481C1773.34 163.107 1784.28 147.24 1798.31 133.877C1812.34 120.515 1828.99 110.254 1848.25 103.096C1867.51 95.6985 1888.55 92 1911.38 92C1937.3 92 1959.65 96.7723 1978.43 106.317C1997.46 115.862 2012.08 129.105 2022.31 146.046C2032.77 162.75 2038 182.077 2038 204.03C2038 226.221 2034.08 246.504 2026.23 264.877C2018.62 283.012 2007.8 298.76 1993.77 312.123C1979.74 325.485 1963.1 335.865 1943.84 343.262C1924.58 350.421 1903.53 354 1880.7 354ZM1887.84 285.637C1898.3 285.637 1907.46 283.608 1915.3 279.552C1923.39 275.495 1930.28 269.888 1935.99 262.73C1941.7 255.571 1945.98 247.458 1948.83 238.391C1951.68 229.085 1953.11 219.301 1953.11 209.041C1953.11 199.258 1951.09 190.787 1947.05 183.628C1943.24 176.231 1937.65 170.505 1930.28 166.448C1923.15 162.392 1914.47 160.363 1904.25 160.363C1894.02 160.363 1884.87 162.392 1876.78 166.448C1868.7 170.505 1861.8 176.112 1856.09 183.27C1850.39 190.429 1846.11 198.661 1843.25 207.967C1840.4 217.035 1838.97 226.699 1838.97 236.959C1838.97 246.504 1840.88 254.975 1844.68 262.372C1848.72 269.769 1854.31 275.495 1861.44 279.552C1868.82 283.608 1877.61 285.637 1887.84 285.637Z" fill="white"/>
<path d="M1054.01 680.273L1024 429.727H1107.25L1131.18 641.26H1087.6L1197.64 429.727H1275.17L1296.25 641.26H1255.16L1364.85 429.727H1447.74L1317.69 680.273H1227.29L1208.36 507.038H1234.08L1144.4 680.273H1054.01Z" fill="white"/>
<path d="M1553.72 686C1527.76 686 1505.25 681.228 1486.19 671.683C1467.38 662.138 1452.73 649.015 1442.25 632.311C1432.01 615.37 1426.89 595.923 1426.89 573.97C1426.89 551.779 1430.7 531.616 1438.32 513.481C1446.18 495.107 1457.14 479.24 1471.19 465.877C1485.24 452.515 1501.91 442.254 1521.21 435.096C1540.5 427.699 1561.58 424 1584.45 424C1610.41 424 1632.8 428.772 1651.62 438.317C1670.67 447.862 1685.32 461.105 1695.56 478.046C1706.04 494.75 1711.28 514.077 1711.28 536.03C1711.28 558.221 1707.35 578.504 1699.49 596.877C1691.87 615.012 1681.03 630.76 1666.98 644.123C1652.93 657.485 1636.25 667.865 1616.96 675.262C1597.67 682.421 1576.59 686 1553.72 686ZM1560.87 617.637C1571.35 617.637 1580.52 615.608 1588.38 611.552C1596.48 607.495 1603.38 601.888 1609.1 594.73C1614.82 587.571 1619.1 579.458 1621.96 570.391C1624.82 561.085 1626.25 551.301 1626.25 541.041C1626.25 531.258 1624.22 522.787 1620.17 515.628C1616.36 508.231 1610.77 502.505 1603.38 498.448C1596.24 494.392 1587.54 492.363 1577.3 492.363C1567.06 492.363 1557.89 494.392 1549.79 498.448C1541.69 502.505 1534.78 508.112 1529.07 515.27C1523.35 522.429 1519.06 530.661 1516.21 539.967C1513.35 549.035 1511.92 558.699 1511.92 568.959C1511.92 578.504 1513.82 586.975 1517.63 594.372C1521.68 601.769 1527.28 607.495 1534.43 611.552C1541.81 615.608 1550.62 617.637 1560.87 617.637Z" fill="white"/>
<path d="M1715.8 680.273L1765.82 429.727H1878.01C1911.12 429.727 1936.72 437.005 1954.82 451.56C1972.93 465.877 1981.98 486.04 1981.98 512.049C1981.98 533.047 1976.74 551.421 1966.26 567.169C1956.02 582.918 1941.37 595.207 1922.31 604.036C1903.5 612.864 1881.22 617.279 1855.5 617.279H1774.75L1819.77 581.844L1800.12 680.273H1715.8ZM1868.72 680.273L1817.27 589.003H1904.09L1956.25 680.273H1868.72ZM1817.63 591.866L1787.97 553.568H1859.79C1871.46 553.568 1880.51 550.705 1886.94 544.978C1893.37 539.013 1896.59 530.781 1896.59 520.281C1896.59 511.214 1893.73 504.771 1888.01 500.954C1882.53 496.897 1874.91 494.869 1865.15 494.869H1799.76L1844.78 455.497L1817.63 591.866Z" fill="white"/>
<path d="M1982.02 680.273L2032.04 429.727H2116.36L2079.56 614.773H2192.46L2179.24 680.273H1982.02Z" fill="white"/>
<path d="M2202.53 680.273L2252.55 429.727H2365.45C2391.89 429.727 2414.64 434.022 2433.69 442.612C2452.75 451.202 2467.39 463.491 2477.64 479.478C2487.88 495.227 2493 514.077 2493 536.03C2493 558.221 2489.07 578.146 2481.21 595.803C2473.59 613.461 2462.75 628.613 2448.7 641.26C2434.88 653.906 2418.45 663.57 2399.39 670.251C2380.34 676.933 2359.38 680.273 2336.51 680.273H2202.53ZM2300.07 614.415H2339.37C2354.37 614.415 2366.88 611.194 2376.88 604.751C2387.13 598.07 2394.87 589.241 2400.11 578.265C2405.35 567.05 2407.97 554.642 2407.97 541.041C2407.97 531.258 2405.94 523.026 2401.89 516.344C2398.08 509.663 2392.25 504.533 2384.39 500.954C2376.76 497.374 2367.24 495.585 2355.8 495.585H2323.65L2300.07 614.415Z" fill="white"/>
<path d="M1221.46 1002.3L1258.27 817.955H1185L1198.22 752.705H1429.11L1415.89 817.955H1342.62L1305.8 1002.3H1221.46Z" fill="white"/>
<path d="M1538.31 1008C1512.34 1008 1489.82 1003.25 1470.76 993.738C1451.94 984.23 1437.28 971.156 1426.8 954.516C1416.55 937.639 1411.43 918.266 1411.43 896.398C1411.43 874.291 1415.24 854.205 1422.87 836.139C1430.73 817.836 1441.69 802.029 1455.75 788.717C1469.81 775.406 1486.49 765.184 1505.79 758.053C1525.09 750.684 1546.18 747 1569.05 747C1595.02 747 1617.42 751.754 1636.24 761.262C1655.3 770.77 1669.96 783.963 1680.2 800.84C1690.69 817.48 1695.93 836.734 1695.93 858.602C1695.93 880.709 1692 900.914 1684.14 919.217C1676.51 937.283 1665.67 952.971 1651.61 966.283C1637.55 979.594 1620.87 989.934 1601.57 997.303C1582.27 1004.43 1561.19 1008 1538.31 1008ZM1545.46 939.898C1555.94 939.898 1565.12 937.877 1572.98 933.836C1581.08 929.795 1587.99 924.209 1593.71 917.078C1599.43 909.947 1603.72 901.865 1606.58 892.832C1609.44 883.561 1610.87 873.816 1610.87 863.594C1610.87 853.848 1608.84 845.41 1604.79 838.279C1600.98 830.91 1595.38 825.205 1587.99 821.164C1580.84 817.123 1572.15 815.102 1561.9 815.102C1551.66 815.102 1542.48 817.123 1534.38 821.164C1526.28 825.205 1519.37 830.791 1513.65 837.922C1507.93 845.053 1503.64 853.254 1500.78 862.525C1497.92 871.557 1496.5 881.184 1496.5 891.406C1496.5 900.914 1498.4 909.352 1502.21 916.721C1506.26 924.09 1511.86 929.795 1519.01 933.836C1526.4 937.877 1535.21 939.898 1545.46 939.898Z" fill="white"/>
<path d="M1826.62 1008C1800.65 1008 1778.97 1003.13 1761.57 993.381C1744.18 983.398 1731.79 969.611 1724.4 952.021C1717.25 934.193 1716.06 913.512 1720.83 889.98L1748.35 752.705H1832.7L1805.53 888.553C1803.87 897.348 1803.27 904.955 1803.75 911.373C1804.22 917.791 1805.77 923.139 1808.39 927.418C1811.25 931.697 1815.06 934.906 1819.83 937.045C1824.59 938.947 1830.31 939.898 1836.99 939.898C1845.09 939.898 1852 938.234 1857.71 934.906C1863.67 931.578 1868.56 926.111 1872.37 918.504C1876.42 910.898 1879.64 900.914 1882.02 888.553L1909.18 752.705H1992.1L1963.87 893.545C1956.48 930.865 1941.35 959.271 1918.47 978.762C1895.6 998.254 1864.98 1008 1826.62 1008Z" fill="white"/>
<path d="M1980.73 1002.3L2030.77 752.705H2142.99C2176.11 752.705 2201.73 759.955 2219.84 774.455C2237.95 788.717 2247 808.803 2247 834.713C2247 855.631 2241.76 873.934 2231.27 889.623C2221.03 905.311 2206.37 917.553 2187.31 926.348C2168.49 935.143 2146.21 939.541 2120.48 939.541H2039.7L2084.74 904.242L2065.08 1002.3H1980.73ZM2133.7 1002.3L2082.23 911.373H2169.08L2221.27 1002.3H2133.7ZM2082.59 914.225L2052.93 876.074H2124.77C2136.44 876.074 2145.5 873.221 2151.93 867.516C2158.36 861.574 2161.58 853.373 2161.58 842.914C2161.58 833.881 2158.72 827.463 2153 823.66C2147.52 819.619 2139.9 817.598 2130.13 817.598H2064.72L2109.75 778.377L2082.59 914.225Z" fill="white"/>
<path d="M1097.41 1099L548.74 0.860107L0.619873 1099.14L192.26 1099.01C192.26 1099.01 201.54 1099.46 202.29 1098.7L203 1097.9L186.07 1091.72C181.6 1090.11 177.13 1088.49 172.94 1086.73C156.36 1079.68 151.38 1071.68 145.42 1058.28C139.27 1044.81 138.65 1030.09 140.43 1015.68C142.22 1001.16 144.19 899.4 264.8 769.45C381.61 643.59 534.38 640.29 563.34 639.85C712.38 637.6 772.79 719.12 780.56 728.06C781.05 728.63 781.13 729.34 780.77 729.96C780.4 730.57 779.66 731.01 778.77 731.12C744.97 735.37 705.59 745.92 673.01 757.14C586.84 781.39 514.54 824.38 464.07 854.16C312.78 943.44 215.7 1088.06 215.7 1088.06C259.47 1037.2 296.41 1004.97 363.88 950.83C651.83 719.75 931.42 1047.22 643.58 1099.01L1097.41 1099ZM902.23 812.61C902.21 813.23 901.65 813.76 900.95 814.07C900.53 814.26 900.06 814.35 899.59 814.35C899.26 814.35 898.93 814.31 898.62 814.22C883.75 809.87 869.21 805.45 857.68 801.8C852.63 800.19 849.06 796.58 848.12 792.13C838.28 745.41 814.6 708.84 775.73 680.35C758.58 667.76 721.7 644.37 667.41 629.16C652.74 625.05 637.52 621.77 622.19 619.41L622.21 619.46C601.74 617.33 576.64 615.94 548.06 616.96C519.5 617.98 494.7 618.31 474.61 621.88C499.32 568.74 524.03 525.55 548.75 472.41C548.75 472.41 584.88 544.14 593.93 562.97C602.98 581.8 607.52 592.26 616.57 592.3C758.6 592.93 873.77 680.25 894.49 762.11C896.48 770.01 903.09 789.93 902.23 812.61Z" fill="white"/>
</svg>
