<svg width="75" height="75" viewBox="0 0 75 75" fill="none" xmlns="http://www.w3.org/2000/svg">
<path d="M54.1935 39.8673C57.437 36.5778 59.6352 32.4034 60.5119 27.8688C61.3885 23.3343 60.9044 18.6419 59.1205 14.3815C57.3366 10.1212 54.3324 6.48289 50.4855 3.92406C46.6387 1.36522 42.1209 0 37.5 0C32.8791 0 28.3613 1.36522 24.5145 3.92406C20.6676 6.48289 17.6634 10.1212 15.8795 14.3815C14.0956 18.6419 13.6115 23.3343 14.4881 27.8688C15.3648 32.4034 17.563 36.5778 20.8065 39.8673C14.684 42.2728 9.4264 46.4622 5.71614 51.8917C2.00588 57.3212 0.0143301 63.74 7.53527e-07 70.315C-0.000348423 70.9304 0.120659 71.5397 0.356104 72.1083C0.591549 72.6769 0.936815 73.1935 1.37216 73.6286C1.8075 74.0637 2.32439 74.4088 2.89326 74.6441C3.46213 74.8794 4.07183 75.0004 4.6875 75H70.3125C70.9282 75.0004 71.5379 74.8794 72.1067 74.6441C72.6756 74.4088 73.1925 74.0637 73.6278 73.6286C74.0632 73.1935 74.4084 72.6769 74.6439 72.1083C74.8793 71.5397 75.0003 70.9304 75 70.315C74.9857 63.74 72.9941 57.3212 69.2839 51.8917C65.5736 46.4622 60.316 42.2728 54.1935 39.8673Z" fill="#9B9B9B"/>
</svg>
