<svg width="62" height="74" viewBox="0 0 62 74" fill="none" xmlns="http://www.w3.org/2000/svg">
<mask id="mask0_10_226" style="mask-type:alpha" maskUnits="userSpaceOnUse" x="0" y="0" width="48" height="66">
<path d="M0 7.42475C0 3.32417 3.32417 0 7.42475 0H40.1467C44.2473 0 47.5714 3.32417 47.5714 7.42475V58.4265C47.5714 62.527 44.2473 65.8512 40.1467 65.8512H7.42475C3.32417 65.8512 0 62.527 0 58.4265V7.42475Z" fill="#C4C4C4"/>
</mask>
<g mask="url(#mask0_10_226)">
<path d="M0 0H47.5714V65.8512H0V0Z" fill="#FFD43B"/>
<path d="M30.3928 3.71238C30.3928 1.66209 32.0549 0 34.1052 0H74.2519C76.3022 0 77.9643 1.66209 77.9643 3.71238V62.1388C77.9643 64.1891 76.3022 65.8512 74.2519 65.8512H34.1052C32.0549 65.8512 30.3928 64.1891 30.3928 62.1388V3.71238Z" fill="#FFC700"/>
</g>
<mask id="mask1_10_226" style="mask-type:alpha" maskUnits="userSpaceOnUse" x="13" y="8" width="49" height="66">
<path d="M13.7649 15.5734C13.7649 11.4729 17.0891 8.14868 21.1896 8.14868H53.9116C58.0122 8.14868 61.3363 11.4729 61.3363 15.5734V66.5751C61.3363 70.6757 58.0122 73.9999 53.9116 73.9999H21.1896C17.0891 73.9999 13.7649 70.6757 13.7649 66.5751V15.5734Z" fill="#C4C4C4"/>
</mask>
<g mask="url(#mask1_10_226)">
<path d="M13.7649 8.14868H61.3363V73.9999H13.7649V8.14868Z" fill="#FF3B3B"/>
<path d="M44.1577 11.8611C44.1577 9.81077 45.8198 8.14868 47.8701 8.14868H88.0168C90.0671 8.14868 91.7292 9.81077 91.7292 11.8611V70.2875C91.7292 72.3378 90.0671 73.9999 88.0168 73.9999H47.8701C45.8198 73.9999 44.1577 72.3378 44.1577 70.2875V11.8611Z" fill="#FF0000"/>
</g>
</svg>
