<svg width="75" height="85" viewBox="0 0 75 85" fill="none" xmlns="http://www.w3.org/2000/svg">
<path d="M65.625 9.375H56.25C56.2426 6.89088 55.2525 4.51062 53.4959 2.75407C51.7394 0.997522 49.3591 0.00741903 46.875 0L28.125 0C25.6409 0.00741903 23.2606 0.997522 21.5041 2.75407C19.7475 4.51062 18.7574 6.89088 18.75 9.375H9.375C6.89088 9.38242 4.51062 10.3725 2.75407 12.1291C0.997522 13.8856 0.00741903 16.2659 0 18.75V75C0.00741903 77.4841 0.997522 79.8644 2.75407 81.6209C4.51062 83.3775 6.89088 84.3676 9.375 84.375H65.625C68.1091 84.3676 70.4894 83.3775 72.2459 81.6209C74.0025 79.8644 74.9926 77.4841 75 75V18.75C74.9926 16.2659 74.0025 13.8856 72.2459 12.1291C70.4894 10.3725 68.1091 9.38242 65.625 9.375ZM14.0625 70.3125C13.1354 70.3125 12.2291 70.0376 11.4583 69.5225C10.6874 69.0074 10.0866 68.2754 9.73181 67.4188C9.37703 66.5623 9.2842 65.6198 9.46507 64.7105C9.64594 63.8012 10.0924 62.966 10.7479 62.3104C11.4035 61.6549 12.2387 61.2084 13.148 61.0276C14.0573 60.8467 14.9998 60.9395 15.8563 61.2943C16.7129 61.6491 17.4449 62.2499 17.96 63.0208C18.4751 63.7916 18.75 64.6979 18.75 65.625C18.75 66.8682 18.2561 68.0605 17.3771 68.9396C16.498 69.8186 15.3057 70.3125 14.0625 70.3125ZM14.0625 51.5625C13.1354 51.5625 12.2291 51.2876 11.4583 50.7725C10.6874 50.2574 10.0866 49.5254 9.73181 48.6688C9.37703 47.8123 9.2842 46.8698 9.46507 45.9605C9.64594 45.0512 10.0924 44.216 10.7479 43.5604C11.4035 42.9049 12.2387 42.4584 13.148 42.2776C14.0573 42.0967 14.9998 42.1895 15.8563 42.5443C16.7129 42.8991 17.4449 43.4999 17.96 44.2708C18.4751 45.0416 18.75 45.9479 18.75 46.875C18.75 48.1182 18.2561 49.3105 17.3771 50.1896C16.498 51.0686 15.3057 51.5625 14.0625 51.5625ZM14.0625 32.8125C13.1354 32.8125 12.2291 32.5376 11.4583 32.0225C10.6874 31.5074 10.0866 30.7754 9.73181 29.9188C9.37703 29.0623 9.2842 28.1198 9.46507 27.2105C9.64594 26.3012 10.0924 25.466 10.7479 24.8104C11.4035 24.1549 12.2387 23.7084 13.148 23.5276C14.0573 23.3467 14.9998 23.4395 15.8563 23.7943C16.7129 24.1491 17.4449 24.7499 17.96 25.5208C18.4751 26.2916 18.75 27.1979 18.75 28.125C18.75 29.3682 18.2561 30.5605 17.3771 31.4396C16.498 32.3186 15.3057 32.8125 14.0625 32.8125ZM60.9375 70.3125H32.8125C31.5693 70.3125 30.377 69.8186 29.4979 68.9396C28.6189 68.0605 28.125 66.8682 28.125 65.625C28.125 64.3818 28.6189 63.1895 29.4979 62.3104C30.377 61.4314 31.5693 60.9375 32.8125 60.9375H60.9375C62.1807 60.9375 63.373 61.4314 64.2521 62.3104C65.1311 63.1895 65.625 64.3818 65.625 65.625C65.625 66.8682 65.1311 68.0605 64.2521 68.9396C63.373 69.8186 62.1807 70.3125 60.9375 70.3125ZM60.9375 51.5625H32.8125C31.5693 51.5625 30.377 51.0686 29.4979 50.1896C28.6189 49.3105 28.125 48.1182 28.125 46.875C28.125 45.6318 28.6189 44.4395 29.4979 43.5604C30.377 42.6814 31.5693 42.1875 32.8125 42.1875H60.9375C62.1807 42.1875 63.373 42.6814 64.2521 43.5604C65.1311 44.4395 65.625 45.6318 65.625 46.875C65.625 48.1182 65.1311 49.3105 64.2521 50.1896C63.373 51.0686 62.1807 51.5625 60.9375 51.5625ZM60.9375 32.8125H32.8125C31.5693 32.8125 30.377 32.3186 29.4979 31.4396C28.6189 30.5605 28.125 29.3682 28.125 28.125C28.125 26.8818 28.6189 25.6895 29.4979 24.8104C30.377 23.9314 31.5693 23.4375 32.8125 23.4375H60.9375C62.1807 23.4375 63.373 23.9314 64.2521 24.8104C65.1311 25.6895 65.625 26.8818 65.625 28.125C65.625 29.3682 65.1311 30.5605 64.2521 31.4396C63.373 32.3186 62.1807 32.8125 60.9375 32.8125Z" fill="#9B9B9B"/>
</svg>
