<svg width="51" height="70" viewBox="0 0 51 70" fill="none" xmlns="http://www.w3.org/2000/svg">
<mask id="mask0_10_217" style="mask-type:alpha" maskUnits="userSpaceOnUse" x="0" y="0" width="51" height="70">
<path d="M0 7.02341C0 3.14449 3.11754 0 6.96321 0H43.1719C47.0176 0 50.1351 3.14449 50.1351 7.02341V62.9766C50.1351 66.8555 47.0176 70 43.1719 70H6.96321C3.11754 70 0 66.8555 0 62.9766V7.02341Z" fill="#C4C4C4"/>
</mask>
<g mask="url(#mask0_10_217)">
<path d="M0 0H50.1351V70H0V0Z" fill="#FFD43B"/>
<path d="M32.0308 3.5117C32.0308 1.57224 33.5895 0 35.5124 0H78.6843C80.6071 0 82.1659 1.57224 82.1659 3.51171V66.4883C82.1659 68.4278 80.6071 70 78.6843 70H35.5124C33.5895 70 32.0308 68.4278 32.0308 66.4883V3.5117Z" fill="#FFC700"/>
</g>
</svg>
