<svg width="20" height="14" viewBox="0 0 20 14" fill="none" xmlns="http://www.w3.org/2000/svg">
<path fill-rule="evenodd" clip-rule="evenodd" d="M17.9246 0.998137C18.7421 1.21831 19.3867 1.86282 19.6068 2.68047C20.0157 4.17393 19.9999 7.28696 19.9999 7.28696C19.9999 7.28696 19.9999 10.3841 19.6069 11.8777C19.3867 12.6952 18.7422 13.3399 17.9246 13.5599C16.431 13.9531 10.4567 13.9531 10.4567 13.9531C10.4567 13.9531 4.49799 13.9531 2.98881 13.5443C2.17116 13.3242 1.52665 12.6795 1.30648 11.862C0.913452 10.3841 0.913452 7.27123 0.913452 7.27123C0.913452 7.27123 0.913452 4.17393 1.30648 2.68047C1.52651 1.86296 2.18689 1.20259 2.98866 0.982556C4.48227 0.589386 10.4566 0.589386 10.4566 0.589386C10.4566 0.589386 16.431 0.589386 17.9246 0.998137ZM13.5224 7.27125L8.55431 10.1327V4.40983L13.5224 7.27125Z" fill="#171717"/>
</svg>
